<svg xmlns="http://www.w3.org/2000/svg" width="215" height="458"><rect width="215" height="458" rx="27" ry="27" fill="#f2f2f2"/><path d="M92.5 36h31a2.5 2.5 0 010 5h-31a2.5 2.5 0 010-5z" fill-rule="evenodd" fill="#acacac"/><g data-name="Home Button"><circle cx="107.188" cy="428.688" r="20.938" fill="#fafafa"/><path d="M102.879 420.5h8.82a3.717 3.717 0 013.722 3.712V433a3.716 3.716 0 01-3.722 3.712h-8.82A3.716 3.716 0 0199.158 433v-8.8a3.717 3.717 0 013.721-3.7zm.924 1.719h6.942a2.926 2.926 0 012.929 2.922v6.925a2.925 2.925 0 01-2.929 2.922H103.8a2.926 2.926 0 01-2.93-2.922v-6.925a2.927 2.927 0 012.93-2.927z" fill="#bababa" fill-rule="evenodd"/></g><circle data-name="Outer Circle" cx="107.281" cy="20.922" r="4.438" fill="#d8d8d8"/><circle data-name="Red Dot" cx="107.281" cy="20.938" r="1.969" fill="#eb5055"/></svg>