
<?xml-stylesheet type="text/css" href="../../singolo1.css"?>
<svg xmlns="http://www.w3.org/2000/svg" width="22" height="32" viewBox="0 0 22 32"><path class="icon-svg" id="phone"  d="M79 1052h-16a3 3 0 0 0-3 3v26a3 3 0 0 0 3 3h16a3 3 0 0 0 3-3v-26a3 3 0 0 0-3-3zm1 29a1 1 0 0 1-1 1h-16a1 1 0 0 1-1-1v-2h18v2zm0-3h-18v-20h18v20zm0-21h-18v-2a1 1 0 0 1 1-1h16a1 1 0 0 1 1 1v2zm-7-1.5a.5.5 0 0 1-.5.5h-3a.5.5 0 0 1-.5-.5.5.5 0 0 1 .5-.5h3a.5.5 0 0 1 .5.5zm-1 25a.5.5 0 0 1-.5.5h-1a.5.5 0 0 1-.5-.5.5.5 0 0 1 .5-.5h1a.5.5 0 0 1 .5.5z" transform="translate(-60 -1052)"/></svg>
